<svg width="57" height="16" viewBox="0 0 57 16" fill="none" xmlns="http://www.w3.org/2000/svg">
<rect width="57" height="16" rx="3" fill="#F7AD19"/>
<path d="M7.092 11V5.24H9.704C10.752 5.24 11.516 5.736 11.516 6.696C11.516 7.62 10.888 7.9 10.564 7.98V8.06C10.952 8.136 11.692 8.44 11.692 9.424C11.692 10.456 10.896 11 9.796 11H7.092ZM9.516 5.976H8.084V7.704H9.516C10.108 7.704 10.556 7.44 10.548 6.84C10.548 6.244 10.1 5.976 9.516 5.976ZM9.62 8.44H8.084V10.264H9.62C10.244 10.264 10.72 9.984 10.72 9.356C10.72 8.728 10.244 8.44 9.62 8.44ZM12.2415 8.932C12.2415 7.524 13.1295 6.772 14.3895 6.772C15.6455 6.772 16.5335 7.524 16.5335 8.932C16.5335 10.344 15.6455 11.096 14.3895 11.096C13.1295 11.096 12.2415 10.344 12.2415 8.932ZM13.2015 8.932C13.2015 9.884 13.6735 10.392 14.3895 10.392C15.1015 10.392 15.5735 9.884 15.5735 8.932C15.5735 7.984 15.1015 7.476 14.3895 7.476C13.6735 7.476 13.2015 7.984 13.2015 8.932ZM17.1399 8.932C17.1399 7.524 18.0279 6.772 19.2879 6.772C20.5439 6.772 21.4319 7.524 21.4319 8.932C21.4319 10.344 20.5439 11.096 19.2879 11.096C18.0279 11.096 17.1399 10.344 17.1399 8.932ZM18.0999 8.932C18.0999 9.884 18.5719 10.392 19.2879 10.392C19.9999 10.392 20.4719 9.884 20.4719 8.932C20.4719 7.984 19.9999 7.476 19.2879 7.476C18.5719 7.476 18.0999 7.984 18.0999 8.932ZM26.1384 6.988L24.3424 8.644L26.1704 10.88V11H25.1584L23.7344 9.208L23.2024 9.7V11H22.2624V5.24H23.2024V8.56H23.2824L25.1024 6.868H26.1384V6.988ZM29.7198 8.084H28.8558V7.964C28.9438 7.232 29.6238 6.772 30.6518 6.772C31.6878 6.772 32.3718 7.232 32.3718 8.3V10.056C32.3718 10.252 32.4638 10.348 32.6638 10.348H32.8678V11H32.4478C31.9358 11 31.7118 10.732 31.6718 10.4H31.5918C31.3838 10.752 30.9998 11.08 30.1798 11.08C29.2718 11.08 28.6318 10.588 28.6318 9.82C28.6318 8.996 29.2638 8.652 30.0638 8.572L31.0118 8.48C31.3198 8.452 31.4798 8.364 31.4798 8.092C31.4798 7.664 31.1758 7.44 30.6358 7.44C30.0998 7.44 29.7398 7.66 29.7198 8.084ZM29.5598 9.788C29.5598 10.172 29.8718 10.416 30.3598 10.416C30.8958 10.416 31.4758 10.108 31.4758 9.24V8.984H31.3958C31.2718 9.056 31.1438 9.096 30.8318 9.128L30.2998 9.184C29.8478 9.228 29.5598 9.396 29.5598 9.788ZM35.5155 8.12C35.5155 6.288 36.6115 5.144 38.2955 5.144C39.9555 5.144 40.6875 6.176 40.7555 7.096V7.216H39.8195C39.7715 6.604 39.3755 5.908 38.3035 5.908C37.2195 5.908 36.5035 6.756 36.5035 8.12C36.5035 9.484 37.2195 10.332 38.3035 10.332C39.3715 10.332 39.7675 9.576 39.8395 8.968H40.7755V9.088C40.6835 9.996 39.9675 11.096 38.2955 11.096C36.6115 11.096 35.5155 9.952 35.5155 8.12ZM42.4151 8.084H41.5511V7.964C41.6391 7.232 42.3191 6.772 43.3471 6.772C44.3831 6.772 45.0671 7.232 45.0671 8.3V10.056C45.0671 10.252 45.1591 10.348 45.3591 10.348H45.5631V11H45.1431C44.6311 11 44.4071 10.732 44.3671 10.4H44.2871C44.0791 10.752 43.6951 11.08 42.8751 11.08C41.9671 11.08 41.3271 10.588 41.3271 9.82C41.3271 8.996 41.9591 8.652 42.7591 8.572L43.7071 8.48C44.0151 8.452 44.1751 8.364 44.1751 8.092C44.1751 7.664 43.8711 7.44 43.3311 7.44C42.7951 7.44 42.4351 7.66 42.4151 8.084ZM42.2551 9.788C42.2551 10.172 42.5671 10.416 43.0551 10.416C43.5911 10.416 44.1711 10.108 44.1711 9.24V8.984H44.0911C43.9671 9.056 43.8391 9.096 43.5271 9.128L42.9951 9.184C42.5431 9.228 42.2551 9.396 42.2551 9.788ZM46.2389 11V5.24H47.1869V11H46.2389ZM48.2467 11V5.24H49.1948V11H48.2467Z" fill="#063F56"/>
</svg>
