<svg width="62" height="16" viewBox="0 0 62 16" fill="none" xmlns="http://www.w3.org/2000/svg">
<rect width="62" height="16" rx="3" fill="#F7AD19"/>
<path d="M5.328 8.12C5.328 6.272 6.44 5.144 8.144 5.144C9.848 5.144 10.96 6.272 10.96 8.12C10.96 9.968 9.848 11.096 8.144 11.096C6.44 11.096 5.328 9.968 5.328 8.12ZM6.316 8.12C6.316 9.504 7.02 10.332 8.144 10.332C9.268 10.332 9.972 9.504 9.972 8.12C9.972 6.736 9.268 5.908 8.144 5.908C7.02 5.908 6.316 6.736 6.316 8.12ZM11.8171 11V6.868H12.7291V7.4H12.8091C12.9451 7.16 13.2891 6.78 14.0931 6.78C15.0211 6.78 15.6171 7.292 15.6171 8.256V11H14.6691V8.312C14.6691 7.756 14.3411 7.496 13.8331 7.496C13.2571 7.496 12.7651 7.84 12.7651 8.616V11H11.8171ZM16.6374 11V5.24H17.5854V7.344H17.6654C17.8374 7.084 18.2094 6.78 18.9454 6.78C19.9974 6.78 20.8334 7.484 20.8334 8.932C20.8334 10.38 19.9974 11.088 18.9454 11.088C18.2094 11.088 17.8134 10.788 17.6294 10.476H17.5494V11H16.6374ZM17.5454 8.932C17.5454 9.868 18.0134 10.372 18.7134 10.372C19.4134 10.372 19.8774 9.868 19.8774 8.932C19.8774 8 19.4134 7.496 18.7134 7.496C18.0134 7.496 17.5454 8 17.5454 8.932ZM21.4446 8.932C21.4446 7.524 22.3326 6.772 23.5926 6.772C24.8486 6.772 25.7366 7.524 25.7366 8.932C25.7366 10.344 24.8486 11.096 23.5926 11.096C22.3326 11.096 21.4446 10.344 21.4446 8.932ZM22.4046 8.932C22.4046 9.884 22.8766 10.392 23.5926 10.392C24.3046 10.392 24.7766 9.884 24.7766 8.932C24.7766 7.984 24.3046 7.476 23.5926 7.476C22.8766 7.476 22.4046 7.984 22.4046 8.932ZM27.4151 8.084H26.5511V7.964C26.6391 7.232 27.3191 6.772 28.3471 6.772C29.3831 6.772 30.0671 7.232 30.0671 8.3V10.056C30.0671 10.252 30.1591 10.348 30.3591 10.348H30.5631V11H30.1431C29.6311 11 29.4071 10.732 29.3671 10.4H29.2871C29.0791 10.752 28.6951 11.08 27.8751 11.08C26.9671 11.08 26.3271 10.588 26.3271 9.82C26.3271 8.996 26.9591 8.652 27.7591 8.572L28.7071 8.48C29.0151 8.452 29.1751 8.364 29.1751 8.092C29.1751 7.664 28.8711 7.44 28.3311 7.44C27.7951 7.44 27.4351 7.66 27.4151 8.084ZM27.2551 9.788C27.2551 10.172 27.5671 10.416 28.0551 10.416C28.5911 10.416 29.1711 10.108 29.1711 9.24V8.984H29.0911C28.9671 9.056 28.8391 9.096 28.5271 9.128L27.9951 9.184C27.5431 9.228 27.2551 9.396 27.2551 9.788ZM31.2389 11V6.868H32.1509V7.476H32.2309C32.4029 7.072 32.7549 6.74 33.5949 6.828V7.628C32.7589 7.524 32.1869 7.78 32.1869 8.8V11H31.2389ZM38.1562 5.24V11H37.2443V10.476H37.1643C36.9803 10.788 36.5843 11.088 35.8483 11.088C34.7963 11.088 33.9603 10.38 33.9603 8.932C33.9603 7.484 34.7963 6.78 35.8483 6.78C36.5843 6.78 36.9563 7.084 37.1323 7.344H37.2123V5.24H38.1562ZM37.2483 8.932C37.2483 8 36.7803 7.496 36.0843 7.496C35.3843 7.496 34.9163 8 34.9163 8.932C34.9163 9.868 35.3843 10.372 36.0843 10.372C36.7803 10.372 37.2483 9.868 37.2483 8.932ZM41.3874 11V6.868H42.2994V7.4H42.3794C42.5154 7.16 42.8594 6.78 43.6634 6.78C44.5914 6.78 45.1874 7.292 45.1874 8.256V11H44.2394V8.312C44.2394 7.756 43.9114 7.496 43.4034 7.496C42.8274 7.496 42.3354 7.84 42.3354 8.616V11H41.3874ZM45.9837 8.932C45.9837 7.524 46.8717 6.772 48.1317 6.772C49.3877 6.772 50.2757 7.524 50.2757 8.932C50.2757 10.344 49.3877 11.096 48.1317 11.096C46.8717 11.096 45.9837 10.344 45.9837 8.932ZM46.9437 8.932C46.9437 9.884 47.4157 10.392 48.1317 10.392C48.8437 10.392 49.3157 9.884 49.3157 8.932C49.3157 7.984 48.8437 7.476 48.1317 7.476C47.4157 7.476 46.9437 7.984 46.9437 8.932ZM50.6632 6.988V6.868H51.5193L52.2193 9.884H52.2993L53.1673 6.868H54.0313L54.8993 9.884H54.9793L55.6793 6.868H56.5273V6.988L55.5273 11H54.4953L53.6353 8.02H53.5553L52.6953 11H51.6633L50.6632 6.988Z" fill="#063F56"/>
</svg>
