<svg width="57" height="16" viewBox="0 0 57 16" fill="none" xmlns="http://www.w3.org/2000/svg">
<rect width="57" height="16" rx="3" fill="#F7AD19"/>
<path d="M4.328 8.12C4.328 6.288 5.424 5.144 7.108 5.144C8.768 5.144 9.5 6.176 9.568 7.096V7.216H8.632C8.584 6.604 8.188 5.908 7.116 5.908C6.032 5.908 5.316 6.756 5.316 8.12C5.316 9.484 6.032 10.332 7.116 10.332C8.184 10.332 8.58 9.576 8.652 8.968H9.588V9.088C9.496 9.996 8.78 11.096 7.108 11.096C5.424 11.096 4.328 9.952 4.328 8.12ZM10.3796 11V5.24H11.3276V7.38H11.4076C11.5556 7.124 11.8996 6.78 12.6556 6.78C13.5836 6.78 14.1796 7.292 14.1796 8.256V11H13.2316V8.312C13.2316 7.756 12.9036 7.496 12.3956 7.496C11.8196 7.496 11.3276 7.84 11.3276 8.616V11H10.3796ZM16.0479 8.084H15.1839V7.964C15.2719 7.232 15.9519 6.772 16.9799 6.772C18.0159 6.772 18.6999 7.232 18.6999 8.3V10.056C18.6999 10.252 18.7919 10.348 18.9919 10.348H19.1959V11H18.7759C18.2639 11 18.0399 10.732 17.9999 10.4H17.9199C17.7119 10.752 17.3279 11.08 16.5079 11.08C15.5999 11.08 14.9599 10.588 14.9599 9.82C14.9599 8.996 15.5919 8.652 16.3919 8.572L17.3399 8.48C17.6479 8.452 17.8079 8.364 17.8079 8.092C17.8079 7.664 17.5039 7.44 16.9639 7.44C16.4279 7.44 16.0679 7.66 16.0479 8.084ZM15.8879 9.788C15.8879 10.172 16.1999 10.416 16.6879 10.416C17.2239 10.416 17.8039 10.108 17.8039 9.24V8.984H17.7239C17.5999 9.056 17.4719 9.096 17.1599 9.128L16.6279 9.184C16.1759 9.228 15.8879 9.396 15.8879 9.788ZM19.3043 7.52V6.868H20.0923V5.748H21.0283V6.868H21.9323V7.52H21.0283V9.972C21.0283 10.192 21.1363 10.312 21.3683 10.312H21.9083V11H21.1483C20.4843 11 20.0923 10.656 20.0923 10V7.52H19.3043ZM24.5148 6.988V6.868H25.3708L26.0708 9.884H26.1508L27.0188 6.868H27.8828L28.7508 9.884H28.8308L29.5308 6.868H30.3788V6.988L29.3788 11H28.3468L27.4868 8.02H27.4068L26.5468 11H25.5148L24.5148 6.988ZM31.0278 6.172V5.244H31.9878V6.172H31.0278ZM31.0358 11V6.868H31.9838V11H31.0358ZM32.6636 7.52V6.868H33.4516V5.748H34.3876V6.868H35.2916V7.52H34.3876V9.972C34.3876 10.192 34.4956 10.312 34.7276 10.312H35.2676V11H34.5076C33.8436 11 33.4516 10.656 33.4516 10V7.52H32.6636ZM36.0983 11V5.24H37.0463V7.38H37.1263C37.2743 7.124 37.6183 6.78 38.3743 6.78C39.3023 6.78 39.8983 7.292 39.8983 8.256V11H38.9503V8.312C38.9503 7.756 38.6223 7.496 38.1143 7.496C37.5383 7.496 37.0463 7.84 37.0463 8.616V11H36.0983ZM43.1145 8.892V5.24H44.1065V8.944C44.1065 9.86 44.6025 10.332 45.4865 10.332C46.3705 10.332 46.8705 9.86 46.8705 8.944V5.24H47.8625V8.892C47.8625 10.264 47.0345 11.096 45.4865 11.096C43.9625 11.096 43.1145 10.264 43.1145 8.892ZM48.7781 8C48.7781 7.248 49.4221 6.78 50.4941 6.78C51.5741 6.78 52.2181 7.264 52.3061 7.964V8.084H51.4421C51.4101 7.628 51.0541 7.432 50.5181 7.432C49.9941 7.432 49.6701 7.632 49.6701 7.964C49.6701 8.304 49.9581 8.424 50.3221 8.488L51.0461 8.604C51.8741 8.74 52.4501 9.028 52.4501 9.8C52.4501 10.588 51.8301 11.096 50.6541 11.096C49.4741 11.096 48.7941 10.584 48.6941 9.844V9.724H49.5741C49.6181 10.208 50.0621 10.444 50.6541 10.444C51.2461 10.444 51.5541 10.216 51.5541 9.864C51.5541 9.52 51.2581 9.404 50.8181 9.328L50.0981 9.212C49.3221 9.084 48.7781 8.728 48.7781 8Z" fill="#063F56"/>
</svg>
