<svg width="88" height="12" viewBox="0 0 88 12" fill="none" xmlns="http://www.w3.org/2000/svg">
<path d="M5 0.57735C5.6188 0.220085 6.3812 0.220085 7 0.57735L10.1962 2.42265C10.815 2.77992 11.1962 3.44017 11.1962 4.1547V7.8453C11.1962 8.55983 10.815 9.22009 10.1962 9.57735L7 11.4226C6.3812 11.7799 5.6188 11.7799 5 11.4226L1.80385 9.57735C1.18505 9.22008 0.803848 8.55983 0.803848 7.8453V4.1547C0.803848 3.44017 1.18505 2.77992 1.80385 2.42265L5 0.57735Z" fill="#F7AD19"/>
<path d="M8.5 6.98506C8.5 7.68256 7.94 8.24756 7.2425 8.25006H7.24H4.7625C4.0675 8.25006 3.5 7.68756 3.5 6.99006V6.98756C3.5 6.98756 3.5015 5.88106 3.5035 5.32456C3.50375 5.22006 3.62375 5.16156 3.7055 5.22656C4.2995 5.69781 5.36175 6.55706 5.375 6.56831C5.5525 6.71056 5.7775 6.79081 6.0075 6.79081C6.2375 6.79081 6.4625 6.71056 6.64 6.56556C6.65325 6.55681 7.69175 5.72331 8.29475 5.24431C8.37675 5.17906 8.49725 5.23756 8.4975 5.34181C8.5 5.89406 8.5 6.98506 8.5 6.98506" fill="#063F56"/>
<path d="M8.36897 4.41838C8.15247 4.01038 7.72647 3.74988 7.25747 3.74988H4.76247C4.29347 3.74988 3.86747 4.01038 3.65097 4.41838C3.60247 4.50963 3.62547 4.62338 3.70622 4.68788L5.56247 6.17263C5.69247 6.27763 5.84997 6.32988 6.00747 6.32988C6.00847 6.32988 6.00922 6.32988 6.00997 6.32988C6.01072 6.32988 6.01172 6.32988 6.01247 6.32988C6.16997 6.32988 6.32747 6.27763 6.45747 6.17263L8.31372 4.68788C8.39447 4.62338 8.41747 4.50963 8.36897 4.41838" fill="#063F56"/>
<path d="M16.404 4.772C16.404 3.852 17.188 3.148 18.596 3.148C20 3.148 20.82 3.832 20.9 4.828V4.948H19.968C19.932 4.176 19.352 3.868 18.612 3.868C17.868 3.868 17.376 4.188 17.376 4.732C17.376 5.272 17.82 5.476 18.508 5.612L19.26 5.764C20.324 5.976 21.036 6.388 21.036 7.384C21.036 8.392 20.24 9.092 18.768 9.092C17.3 9.092 16.376 8.392 16.3 7.376V7.256H17.24C17.332 8.04 17.96 8.372 18.76 8.372C19.56 8.372 20.064 8.04 20.064 7.448C20.064 6.864 19.588 6.688 18.868 6.54L18.116 6.388C17.084 6.184 16.404 5.692 16.404 4.772ZM21.8561 9V4.868H22.7601V5.36H22.8401C23.0081 5.092 23.3281 4.78 24.0441 4.78C24.7361 4.78 25.0761 5.124 25.2001 5.444H25.2801C25.4761 5.128 25.8481 4.78 26.5921 4.78C27.3721 4.78 28.0001 5.22 28.0001 6.172V9H27.0601V6.24C27.0601 5.776 26.7961 5.496 26.3241 5.496C25.7841 5.496 25.3961 5.824 25.3961 6.54V9H24.4601V6.24C24.4601 5.776 24.2041 5.496 23.7281 5.496C23.1801 5.496 22.7961 5.824 22.7961 6.54V9H21.8561ZM29.0122 4.172V3.244H29.9722V4.172H29.0122ZM29.0202 9V4.868H29.9682V9H29.0202ZM31.028 9V4.868H31.94V5.476H32.02C32.192 5.072 32.544 4.74 33.384 4.828V5.628C32.548 5.524 31.976 5.78 31.976 6.8V9H31.028ZM34.8369 6.084H33.9729V5.964C34.0609 5.232 34.7409 4.772 35.7689 4.772C36.8049 4.772 37.4889 5.232 37.4889 6.3V8.056C37.4889 8.252 37.5809 8.348 37.7809 8.348H37.9849V9H37.5649C37.0529 9 36.8289 8.732 36.7889 8.4H36.7089C36.5009 8.752 36.1169 9.08 35.2969 9.08C34.3889 9.08 33.7489 8.588 33.7489 7.82C33.7489 6.996 34.3809 6.652 35.1809 6.572L36.1289 6.48C36.4369 6.452 36.5969 6.364 36.5969 6.092C36.5969 5.664 36.2929 5.44 35.7529 5.44C35.2169 5.44 34.8569 5.66 34.8369 6.084ZM34.6769 7.788C34.6769 8.172 34.9889 8.416 35.4769 8.416C36.0129 8.416 36.5929 8.108 36.5929 7.24V6.984H36.5129C36.3889 7.056 36.2609 7.096 35.9489 7.128L35.4169 7.184C34.9649 7.228 34.6769 7.396 34.6769 7.788ZM44.8608 6.144C44.8608 6.38933 44.8315 6.62933 44.7728 6.864C44.7195 7.09867 44.6341 7.312 44.5168 7.504C44.3995 7.69067 44.2555 7.84267 44.0848 7.96C43.9141 8.072 43.7115 8.128 43.4768 8.128C43.2315 8.128 43.0368 8.05867 42.8928 7.92C42.7541 7.776 42.6688 7.61333 42.6368 7.432H42.5968C42.5008 7.62933 42.3595 7.79467 42.1728 7.928C41.9861 8.06133 41.7515 8.128 41.4688 8.128C41.0635 8.128 40.7488 7.992 40.5248 7.72C40.3061 7.448 40.1968 7.088 40.1968 6.64C40.1968 6.288 40.2661 5.97867 40.4048 5.712C40.5435 5.44 40.7381 5.22667 40.9888 5.072C41.2448 4.91733 41.5461 4.84 41.8928 4.84C42.1275 4.84 42.3568 4.86133 42.5808 4.904C42.8101 4.94133 42.9888 4.984 43.1168 5.032L43.0368 6.656C43.0315 6.752 43.0288 6.82133 43.0288 6.864C43.0288 6.90133 43.0288 6.928 43.0288 6.944C43.0288 7.22133 43.0768 7.40533 43.1728 7.496C43.2741 7.58667 43.3915 7.632 43.5248 7.632C43.6901 7.632 43.8288 7.56533 43.9408 7.432C44.0581 7.29333 44.1461 7.112 44.2048 6.888C44.2688 6.65867 44.3008 6.408 44.3008 6.136C44.3008 5.64 44.1995 5.22133 43.9968 4.88C43.7995 4.53333 43.5248 4.26933 43.1728 4.088C42.8261 3.90667 42.4315 3.816 41.9888 3.816C41.5355 3.816 41.1328 3.888 40.7808 4.032C40.4288 4.176 40.1328 4.37867 39.8928 4.64C39.6581 4.90133 39.4795 5.21067 39.3568 5.568C39.2341 5.92 39.1728 6.30933 39.1728 6.736C39.1728 7.25867 39.2661 7.704 39.4528 8.072C39.6395 8.43467 39.9115 8.712 40.2688 8.904C40.6315 9.09067 41.0741 9.184 41.5968 9.184C41.9221 9.184 42.2315 9.14667 42.5248 9.072C42.8235 9.00267 43.0875 8.92533 43.3168 8.84V9.384C43.0875 9.48 42.8288 9.55733 42.5408 9.616C42.2581 9.68 41.9435 9.712 41.5968 9.712C40.9675 9.712 40.4288 9.59467 39.9808 9.36C39.5328 9.12533 39.1888 8.78933 38.9488 8.352C38.7141 7.90933 38.5968 7.37867 38.5968 6.76C38.5968 6.264 38.6741 5.80533 38.8288 5.384C38.9835 4.95733 39.2075 4.58933 39.5008 4.28C39.7941 3.96533 40.1488 3.72267 40.5648 3.552C40.9861 3.376 41.4608 3.288 41.9888 3.288C42.4048 3.288 42.7861 3.35467 43.1328 3.488C43.4848 3.616 43.7888 3.80533 44.0448 4.056C44.3061 4.30133 44.5061 4.6 44.6448 4.952C44.7888 5.304 44.8608 5.70133 44.8608 6.144ZM40.8208 6.656C40.8208 6.99733 40.8875 7.24533 41.0208 7.4C41.1595 7.55467 41.3435 7.632 41.5728 7.632C41.8715 7.632 42.0848 7.52 42.2128 7.296C42.3461 7.072 42.4235 6.78133 42.4448 6.424L42.4928 5.424C42.4235 5.40267 42.3355 5.384 42.2288 5.368C42.1221 5.352 42.0128 5.344 41.9008 5.344C41.6395 5.344 41.4288 5.408 41.2688 5.536C41.1088 5.664 40.9941 5.82933 40.9248 6.032C40.8555 6.22933 40.8208 6.43733 40.8208 6.656ZM45.4761 5.52V4.868H46.2641V3.748H47.2001V4.868H48.1041V5.52H47.2001V7.972C47.2001 8.192 47.3081 8.312 47.5401 8.312H48.0801V9H47.3201C46.6561 9 46.2641 8.656 46.2641 8V5.52H45.4761ZM49.7276 6.084H48.8636V5.964C48.9516 5.232 49.6316 4.772 50.6596 4.772C51.6956 4.772 52.3796 5.232 52.3796 6.3V8.056C52.3796 8.252 52.4716 8.348 52.6716 8.348H52.8756V9H52.4556C51.9436 9 51.7196 8.732 51.6796 8.4H51.5996C51.3916 8.752 51.0076 9.08 50.1876 9.08C49.2796 9.08 48.6396 8.588 48.6396 7.82C48.6396 6.996 49.2716 6.652 50.0716 6.572L51.0196 6.48C51.3276 6.452 51.4876 6.364 51.4876 6.092C51.4876 5.664 51.1836 5.44 50.6436 5.44C50.1076 5.44 49.7476 5.66 49.7276 6.084ZM49.5676 7.788C49.5676 8.172 49.8796 8.416 50.3676 8.416C50.9036 8.416 51.4836 8.108 51.4836 7.24V6.984H51.4036C51.2796 7.056 51.1516 7.096 50.8396 7.128L50.3076 7.184C49.8556 7.228 49.5676 7.396 49.5676 7.788ZM53.5514 9V3.24H54.4994V5.344H54.5794C54.7514 5.084 55.1234 4.78 55.8594 4.78C56.9114 4.78 57.7474 5.484 57.7474 6.932C57.7474 8.38 56.9114 9.088 55.8594 9.088C55.1234 9.088 54.7274 8.788 54.5434 8.476H54.4634V9H53.5514ZM54.4594 6.932C54.4594 7.868 54.9274 8.372 55.6274 8.372C56.3274 8.372 56.7914 7.868 56.7914 6.932C56.7914 6 56.3274 5.496 55.6274 5.496C54.9274 5.496 54.4594 6 54.4594 6.932ZM59.4307 6.084H58.5667V5.964C58.6547 5.232 59.3347 4.772 60.3627 4.772C61.3987 4.772 62.0827 5.232 62.0827 6.3V8.056C62.0827 8.252 62.1747 8.348 62.3747 8.348H62.5787V9H62.1587C61.6467 9 61.4227 8.732 61.3827 8.4H61.3027C61.0947 8.752 60.7107 9.08 59.8907 9.08C58.9827 9.08 58.3427 8.588 58.3427 7.82C58.3427 6.996 58.9747 6.652 59.7747 6.572L60.7227 6.48C61.0307 6.452 61.1907 6.364 61.1907 6.092C61.1907 5.664 60.8867 5.44 60.3467 5.44C59.8107 5.44 59.4507 5.66 59.4307 6.084ZM59.2707 7.788C59.2707 8.172 59.5827 8.416 60.0707 8.416C60.6067 8.416 61.1867 8.108 61.1867 7.24V6.984H61.1067C60.9827 7.056 60.8547 7.096 60.5427 7.128L60.0107 7.184C59.5587 7.228 59.2707 7.396 59.2707 7.788ZM63.0749 6C63.0749 5.248 63.7189 4.78 64.7909 4.78C65.8709 4.78 66.5149 5.264 66.6029 5.964V6.084H65.7389C65.7069 5.628 65.3509 5.432 64.8149 5.432C64.2909 5.432 63.9669 5.632 63.9669 5.964C63.9669 6.304 64.2549 6.424 64.6189 6.488L65.3429 6.604C66.1709 6.74 66.7469 7.028 66.7469 7.8C66.7469 8.588 66.1269 9.096 64.9509 9.096C63.7709 9.096 63.0909 8.584 62.9909 7.844V7.724H63.8709C63.9149 8.208 64.3589 8.444 64.9509 8.444C65.5429 8.444 65.8509 8.216 65.8509 7.864C65.8509 7.52 65.5549 7.404 65.1149 7.328L64.3949 7.212C63.6189 7.084 63.0749 6.728 63.0749 6ZM67.528 9V3.24H68.476V5.38H68.556C68.704 5.124 69.048 4.78 69.804 4.78C70.732 4.78 71.328 5.292 71.328 6.256V9H70.38V6.312C70.38 5.756 70.052 5.496 69.544 5.496C68.968 5.496 68.476 5.84 68.476 6.616V9H67.528ZM72.3403 4.172V3.244H73.3003V4.172H72.3403ZM72.3483 9V4.868H73.2963V9H72.3483ZM74.3561 9V4.868H75.2681V5.476H75.3481C75.5201 5.072 75.8721 4.74 76.7121 4.828V5.628C75.8761 5.524 75.3041 5.78 75.3041 6.8V9H74.3561ZM76.8653 9V8.012H77.9173V9H76.8653ZM78.6999 6C78.6999 5.248 79.3439 4.78 80.4159 4.78C81.4959 4.78 82.1399 5.264 82.2279 5.964V6.084H81.3639C81.3319 5.628 80.9759 5.432 80.4399 5.432C79.9159 5.432 79.5919 5.632 79.5919 5.964C79.5919 6.304 79.8799 6.424 80.2439 6.488L80.9679 6.604C81.7959 6.74 82.3719 7.028 82.3719 7.8C82.3719 8.588 81.7519 9.096 80.5759 9.096C79.3959 9.096 78.7159 8.584 78.6159 7.844V7.724H79.4959C79.5399 8.208 79.9839 8.444 80.5759 8.444C81.1679 8.444 81.4759 8.216 81.4759 7.864C81.4759 7.52 81.1799 7.404 80.7399 7.328L80.0199 7.212C79.2439 7.084 78.6999 6.728 78.6999 6ZM84.001 6.084H83.137V5.964C83.225 5.232 83.905 4.772 84.933 4.772C85.969 4.772 86.653 5.232 86.653 6.3V8.056C86.653 8.252 86.745 8.348 86.945 8.348H87.149V9H86.729C86.217 9 85.993 8.732 85.953 8.4H85.873C85.665 8.752 85.281 9.08 84.461 9.08C83.553 9.08 82.913 8.588 82.913 7.82C82.913 6.996 83.545 6.652 84.345 6.572L85.293 6.48C85.601 6.452 85.761 6.364 85.761 6.092C85.761 5.664 85.457 5.44 84.917 5.44C84.381 5.44 84.021 5.66 84.001 6.084ZM83.841 7.788C83.841 8.172 84.153 8.416 84.641 8.416C85.177 8.416 85.757 8.108 85.757 7.24V6.984H85.677C85.553 7.056 85.425 7.096 85.113 7.128L84.581 7.184C84.129 7.228 83.841 7.396 83.841 7.788Z" fill="#063F56"/>
</svg>
