<svg width="12" height="12" viewBox="0 0 12 12" fill="none" xmlns="http://www.w3.org/2000/svg">
<rect width="12" height="12" rx="6" fill="#063F56"/>
<path fill-rule="evenodd" clip-rule="evenodd" d="M8.00006 2.99988C8.26528 2.99988 8.51963 3.10523 8.70717 3.29277C8.8947 3.48031 9.00006 3.73466 9.00006 3.99988V7.99988C9.00006 8.26509 8.8947 8.51945 8.70717 8.70698C8.51963 8.89452 8.26528 8.99988 8.00006 8.99988H4.00006C3.73484 8.99988 3.48049 8.89452 3.29295 8.70698C3.10542 8.51945 3.00006 8.26509 3.00006 7.99988V3.99988C3.00006 3.73466 3.10542 3.48031 3.29295 3.29277C3.48049 3.10523 3.73484 2.99988 4.00006 2.99988H8.00006ZM4.66673 5.33321C4.57832 5.33321 4.49354 5.36833 4.43103 5.43084C4.36851 5.49335 4.33339 5.57814 4.33339 5.66654V7.33321C4.33339 7.42162 4.36851 7.5064 4.43103 7.56891C4.49354 7.63143 4.57832 7.66654 4.66673 7.66654C4.75513 7.66654 4.83992 7.63143 4.90243 7.56891C4.96494 7.5064 5.00006 7.42162 5.00006 7.33321V5.66654C5.00006 5.57814 4.96494 5.49335 4.90243 5.43084C4.83992 5.36833 4.75513 5.33321 4.66673 5.33321ZM5.66673 4.99988C5.57832 4.99988 5.49354 5.035 5.43103 5.09751C5.36851 5.16002 5.33339 5.24481 5.33339 5.33321V7.33321C5.33339 7.42162 5.36851 7.5064 5.43103 7.56891C5.49354 7.63143 5.57832 7.66654 5.66673 7.66654C5.75513 7.66654 5.83992 7.63143 5.90243 7.56891C5.96494 7.5064 6.00006 7.42162 6.00006 7.33321V6.11321C6.10173 5.99854 6.27339 5.86388 6.46439 5.78221C6.57539 5.73488 6.74239 5.71554 6.85839 5.75221C6.89688 5.76197 6.93115 5.78397 6.95606 5.81488C6.97339 5.83821 7.00006 5.89021 7.00006 5.99988V7.33321C7.00006 7.42162 7.03518 7.5064 7.09769 7.56891C7.1602 7.63143 7.24499 7.66654 7.33339 7.66654C7.4218 7.66654 7.50659 7.63143 7.5691 7.56891C7.63161 7.5064 7.66673 7.42162 7.66673 7.33321V5.99988C7.66673 5.77654 7.61006 5.57788 7.49206 5.41854C7.38348 5.27406 7.23151 5.16812 7.05839 5.11621C6.75773 5.02188 6.42473 5.07421 6.20239 5.16954C6.13122 5.20016 6.06188 5.23488 5.99473 5.27354C5.98075 5.19674 5.94027 5.12728 5.88033 5.07727C5.82039 5.02725 5.74479 4.99987 5.66673 4.99988ZM4.66673 4.33321C4.57832 4.33321 4.49354 4.36833 4.43103 4.43084C4.36851 4.49335 4.33339 4.57814 4.33339 4.66654C4.33339 4.75495 4.36851 4.83973 4.43103 4.90225C4.49354 4.96476 4.57832 4.99988 4.66673 4.99988C4.75513 4.99988 4.83992 4.96476 4.90243 4.90225C4.96494 4.83973 5.00006 4.75495 5.00006 4.66654C5.00006 4.57814 4.96494 4.49335 4.90243 4.43084C4.83992 4.36833 4.75513 4.33321 4.66673 4.33321Z" fill="#F5F5F5"/>
</svg>
