<svg width="142" height="12" viewBox="0 0 142 12" fill="none" xmlns="http://www.w3.org/2000/svg">
<path d="M5 0.57735C5.6188 0.220085 6.3812 0.220085 7 0.57735L10.1962 2.42265C10.815 2.77992 11.1962 3.44017 11.1962 4.1547V7.8453C11.1962 8.55983 10.815 9.22009 10.1962 9.57735L7 11.4226C6.3812 11.7799 5.6188 11.7799 5 11.4226L1.80385 9.57735C1.18505 9.22008 0.803848 8.55983 0.803848 7.8453V4.1547C0.803848 3.44017 1.18505 2.77992 1.80385 2.42265L5 0.57735Z" fill="#F7AD19"/>
<path fill-rule="evenodd" clip-rule="evenodd" d="M4.84396 2.97894C5.57224 2.55578 6.46742 2.56317 7.18888 2.99832C7.90323 3.44233 8.3374 4.23475 8.33336 5.08717C8.31673 5.934 7.85118 6.73002 7.26924 7.34538C6.93336 7.70215 6.55762 8.01763 6.1497 8.28537C6.10768 8.30966 6.06166 8.32592 6.01391 8.33335C5.96795 8.3314 5.92319 8.31782 5.88367 8.29383C5.26089 7.89154 4.71453 7.37803 4.27086 6.77801C3.89961 6.27714 3.68869 5.67202 3.66675 5.04483C3.66627 4.19077 4.11567 3.40211 4.84396 2.97894ZM5.26472 5.39827C5.38723 5.70029 5.67639 5.89729 5.9972 5.89729C6.20737 5.8988 6.40939 5.81462 6.55827 5.6635C6.70714 5.51238 6.79049 5.30689 6.78975 5.0928C6.79087 4.76602 6.59848 4.47078 6.30242 4.34493C6.00636 4.21909 5.66501 4.28746 5.43777 4.51812C5.21053 4.74879 5.14221 5.09625 5.26472 5.39827Z" fill="#063F56"/>
<ellipse cx="6.00004" cy="9.00002" rx="1.66667" ry="0.333333" fill="#063F56"/>
<path d="M17.152 9H16.176V8.88L18.288 3.24H19.384L21.492 8.88V9H20.512L19.992 7.548H17.668L17.152 9ZM18.792 4.332L17.912 6.804H19.748L18.872 4.332H18.792ZM22.1999 9V4.868H23.1119V5.476H23.1919C23.3639 5.072 23.7159 4.74 24.5559 4.828V5.628C23.7199 5.524 23.1479 5.78 23.1479 6.8V9H22.1999ZM24.8786 7.264V6.532H27.2066V7.264H24.8786ZM32.6635 7.472L32.7275 8.084C32.7715 8.46 32.8275 8.668 32.9715 8.88V9H31.9595C31.8435 8.776 31.7835 8.564 31.7515 8.152L31.7075 7.632C31.6515 6.948 31.3595 6.66 30.4715 6.66H29.2715V9H28.2795V3.24H30.9195C32.0195 3.24 32.8715 3.748 32.8715 4.824C32.8715 5.628 32.4115 6.076 31.7875 6.228V6.308C32.3955 6.468 32.5915 6.824 32.6635 7.472ZM30.8115 3.988H29.2715V5.916H30.8115C31.4675 5.916 31.9075 5.6 31.9075 4.952C31.9075 4.304 31.4675 3.988 30.8115 3.988ZM34.5635 6.084H33.6995V5.964C33.7875 5.232 34.4675 4.772 35.4955 4.772C36.5315 4.772 37.2155 5.232 37.2155 6.3V8.056C37.2155 8.252 37.3075 8.348 37.5075 8.348H37.7115V9H37.2915C36.7795 9 36.5555 8.732 36.5155 8.4H36.4355C36.2275 8.752 35.8435 9.08 35.0235 9.08C34.1155 9.08 33.4755 8.588 33.4755 7.82C33.4755 6.996 34.1075 6.652 34.9075 6.572L35.8555 6.48C36.1635 6.452 36.3235 6.364 36.3235 6.092C36.3235 5.664 36.0195 5.44 35.4795 5.44C34.9435 5.44 34.5835 5.66 34.5635 6.084ZM34.4035 7.788C34.4035 8.172 34.7155 8.416 35.2035 8.416C35.7395 8.416 36.3195 8.108 36.3195 7.24V6.984H36.2395C36.1155 7.056 35.9875 7.096 35.6755 7.128L35.1435 7.184C34.6915 7.228 34.4035 7.396 34.4035 7.788ZM38.3874 9V3.24H39.3354V5.344H39.4154C39.5874 5.084 39.9594 4.78 40.6954 4.78C41.7474 4.78 42.5834 5.484 42.5834 6.932C42.5834 8.38 41.7474 9.088 40.6954 9.088C39.9594 9.088 39.5634 8.788 39.3794 8.476H39.2994V9H38.3874ZM39.2954 6.932C39.2954 7.868 39.7634 8.372 40.4634 8.372C41.1634 8.372 41.6274 7.868 41.6274 6.932C41.6274 6 41.1634 5.496 40.4634 5.496C39.7634 5.496 39.2954 6 39.2954 6.932ZM42.9757 4.988V4.868H43.8318L44.5318 7.884H44.6118L45.4798 4.868H46.3438L47.2118 7.884H47.2918L47.9918 4.868H48.8398V4.988L47.8398 9H46.8078L45.9478 6.02H45.8678L45.0078 9H43.9758L42.9757 4.988ZM50.2979 6.084H49.4339V5.964C49.5219 5.232 50.2019 4.772 51.2299 4.772C52.2659 4.772 52.9499 5.232 52.9499 6.3V8.056C52.9499 8.252 53.0419 8.348 53.2419 8.348H53.4459V9H53.0259C52.5139 9 52.2899 8.732 52.2499 8.4H52.1699C51.9619 8.752 51.5779 9.08 50.7579 9.08C49.8499 9.08 49.2099 8.588 49.2099 7.82C49.2099 6.996 49.8419 6.652 50.6419 6.572L51.5899 6.48C51.8979 6.452 52.0579 6.364 52.0579 6.092C52.0579 5.664 51.7539 5.44 51.2139 5.44C50.6779 5.44 50.3179 5.66 50.2979 6.084ZM50.1379 7.788C50.1379 8.172 50.4499 8.416 50.9379 8.416C51.4739 8.416 52.0539 8.108 52.0539 7.24V6.984H51.9739C51.8499 7.056 51.7219 7.096 51.4099 7.128L50.8779 7.184C50.4259 7.228 50.1379 7.396 50.1379 7.788ZM54.1217 9V3.24H55.0698V5.38H55.1498C55.2978 5.124 55.6418 4.78 56.3978 4.78C57.3258 4.78 57.9218 5.292 57.9218 6.256V9H56.9738V6.312C56.9738 5.756 56.6458 5.496 56.1378 5.496C55.5618 5.496 55.0698 5.84 55.0698 6.616V9H54.1217ZM58.8341 9V8.012H59.8981V9.264C59.8981 9.836 59.5941 10.128 59.0181 10.128H58.8101V9.664H58.9381C59.2501 9.664 59.3581 9.532 59.3581 9.236V9H58.8341ZM67.2651 7.472L67.3291 8.084C67.3731 8.46 67.4291 8.668 67.5731 8.88V9H66.5611C66.4451 8.776 66.3851 8.564 66.3531 8.152L66.3091 7.632C66.2531 6.948 65.9611 6.66 65.0731 6.66H63.8731V9H62.8811V3.24H65.5211C66.6211 3.24 67.4731 3.748 67.4731 4.824C67.4731 5.628 67.0131 6.076 66.3891 6.228V6.308C66.9971 6.468 67.1931 6.824 67.2651 7.472ZM65.4131 3.988H63.8731V5.916H65.4131C66.0691 5.916 66.5091 5.6 66.5091 4.952C66.5091 4.304 66.0691 3.988 65.4131 3.988ZM68.3481 4.172V3.244H69.3081V4.172H68.3481ZM68.3561 9V4.868H69.3041V9H68.3561ZM69.9639 4.988V4.868H70.8999L72.0399 8.064H72.1199L73.2599 4.868H74.1839V4.988L72.3559 9.688C72.0719 10.424 71.7159 10.6 70.9439 10.6H70.4439V9.896H70.8199C71.1919 9.896 71.3039 9.836 71.4399 9.528L71.5879 9.172L69.9639 4.988ZM75.501 6.084H74.637V5.964C74.725 5.232 75.405 4.772 76.433 4.772C77.469 4.772 78.153 5.232 78.153 6.3V8.056C78.153 8.252 78.245 8.348 78.445 8.348H78.649V9H78.229C77.717 9 77.493 8.732 77.453 8.4H77.373C77.165 8.752 76.781 9.08 75.961 9.08C75.053 9.08 74.413 8.588 74.413 7.82C74.413 6.996 75.045 6.652 75.845 6.572L76.793 6.48C77.101 6.452 77.261 6.364 77.261 6.092C77.261 5.664 76.957 5.44 76.417 5.44C75.881 5.44 75.521 5.66 75.501 6.084ZM75.341 7.788C75.341 8.172 75.653 8.416 76.141 8.416C76.677 8.416 77.257 8.108 77.257 7.24V6.984H77.177C77.053 7.056 76.925 7.096 76.613 7.128L76.081 7.184C75.629 7.228 75.341 7.396 75.341 7.788ZM83.2656 3.24V9H82.3536V8.476H82.2736C82.0896 8.788 81.6936 9.088 80.9576 9.088C79.9056 9.088 79.0696 8.38 79.0696 6.932C79.0696 5.484 79.9056 4.78 80.9576 4.78C81.6936 4.78 82.0656 5.084 82.2416 5.344H82.3216V3.24H83.2656ZM82.3576 6.932C82.3576 6 81.8896 5.496 81.1936 5.496C80.4936 5.496 80.0256 6 80.0256 6.932C80.0256 7.868 80.4936 8.372 81.1936 8.372C81.8896 8.372 82.3576 7.868 82.3576 6.932ZM84.3249 9V3.24H85.2729V5.38H85.3529C85.5009 5.124 85.8449 4.78 86.6009 4.78C87.5289 4.78 88.1249 5.292 88.1249 6.256V9H87.1769V6.312C87.1769 5.756 86.8489 5.496 86.3409 5.496C85.7649 5.496 85.2729 5.84 85.2729 6.616V9H84.3249ZM89.0372 9V8.012H90.1012V9.264C90.1012 9.836 89.7972 10.128 89.2212 10.128H89.0132V9.664H89.1412C89.4532 9.664 89.5612 9.532 89.5612 9.236V9H89.0372ZM92.8962 4.772C92.8962 3.852 93.6802 3.148 95.0882 3.148C96.4922 3.148 97.3122 3.832 97.3922 4.828V4.948H96.4602C96.4242 4.176 95.8442 3.868 95.1042 3.868C94.3602 3.868 93.8682 4.188 93.8682 4.732C93.8682 5.272 94.3122 5.476 95.0002 5.612L95.7522 5.764C96.8162 5.976 97.5282 6.388 97.5282 7.384C97.5282 8.392 96.7322 9.092 95.2602 9.092C93.7922 9.092 92.8682 8.392 92.7922 7.376V7.256H93.7322C93.8242 8.04 94.4522 8.372 95.2522 8.372C96.0522 8.372 96.5562 8.04 96.5562 7.448C96.5562 6.864 96.0802 6.688 95.3602 6.54L94.6082 6.388C93.5762 6.184 92.8962 5.692 92.8962 4.772ZM99.1963 6.084H98.3323V5.964C98.4203 5.232 99.1003 4.772 100.128 4.772C101.164 4.772 101.848 5.232 101.848 6.3V8.056C101.848 8.252 101.94 8.348 102.14 8.348H102.344V9H101.924C101.412 9 101.188 8.732 101.148 8.4H101.068C100.86 8.752 100.476 9.08 99.6563 9.08C98.7483 9.08 98.1083 8.588 98.1083 7.82C98.1083 6.996 98.7403 6.652 99.5403 6.572L100.488 6.48C100.796 6.452 100.956 6.364 100.956 6.092C100.956 5.664 100.652 5.44 100.112 5.44C99.5763 5.44 99.2163 5.66 99.1963 6.084ZM99.0363 7.788C99.0363 8.172 99.3483 8.416 99.8363 8.416C100.372 8.416 100.952 8.108 100.952 7.24V6.984H100.872C100.748 7.056 100.62 7.096 100.308 7.128L99.7763 7.184C99.3243 7.228 99.0363 7.396 99.0363 7.788ZM106.702 4.868V9H105.79V8.468H105.71C105.57 8.708 105.23 9.088 104.442 9.088C103.526 9.088 102.93 8.576 102.93 7.612V4.868H103.878V7.556C103.878 8.112 104.206 8.372 104.702 8.372C105.266 8.372 105.754 8.028 105.754 7.252V4.868H106.702ZM111.727 3.24V9H110.815V8.476H110.735C110.551 8.788 110.155 9.088 109.419 9.088C108.367 9.088 107.531 8.38 107.531 6.932C107.531 5.484 108.367 4.78 109.419 4.78C110.155 4.78 110.527 5.084 110.703 5.344H110.783V3.24H111.727ZM110.819 6.932C110.819 6 110.351 5.496 109.655 5.496C108.955 5.496 108.487 6 108.487 6.932C108.487 7.868 108.955 8.372 109.655 8.372C110.351 8.372 110.819 7.868 110.819 6.932ZM112.778 4.172V3.244H113.738V4.172H112.778ZM112.786 9V4.868H113.734V9H112.786ZM117.347 9H116.371V8.88L118.483 3.24H119.579L121.687 8.88V9H120.707L120.187 7.548H117.863L117.347 9ZM118.987 4.332L118.107 6.804H119.943L119.067 4.332H118.987ZM122.395 9V4.868H123.307V5.476H123.387C123.559 5.072 123.911 4.74 124.751 4.828V5.628C123.915 5.524 123.343 5.78 123.343 6.8V9H122.395ZM126.204 6.084H125.34V5.964C125.428 5.232 126.108 4.772 127.136 4.772C128.172 4.772 128.856 5.232 128.856 6.3V8.056C128.856 8.252 128.948 8.348 129.148 8.348H129.352V9H128.932C128.42 9 128.196 8.732 128.156 8.4H128.076C127.868 8.752 127.484 9.08 126.664 9.08C125.756 9.08 125.116 8.588 125.116 7.82C125.116 6.996 125.748 6.652 126.548 6.572L127.496 6.48C127.804 6.452 127.964 6.364 127.964 6.092C127.964 5.664 127.66 5.44 127.12 5.44C126.584 5.44 126.224 5.66 126.204 6.084ZM126.044 7.788C126.044 8.172 126.356 8.416 126.844 8.416C127.38 8.416 127.96 8.108 127.96 7.24V6.984H127.88C127.756 7.056 127.628 7.096 127.316 7.128L126.784 7.184C126.332 7.228 126.044 7.396 126.044 7.788ZM130.028 9V3.24H130.976V5.344H131.056C131.228 5.084 131.6 4.78 132.336 4.78C133.388 4.78 134.224 5.484 134.224 6.932C134.224 8.38 133.388 9.088 132.336 9.088C131.6 9.088 131.204 8.788 131.02 8.476H130.94V9H130.028ZM130.936 6.932C130.936 7.868 131.404 8.372 132.104 8.372C132.804 8.372 133.268 7.868 133.268 6.932C133.268 6 132.804 5.496 132.104 5.496C131.404 5.496 130.936 6 130.936 6.932ZM135.051 4.172V3.244H136.011V4.172H135.051ZM135.059 9V4.868H136.007V9H135.059ZM137.915 6.084H137.051V5.964C137.139 5.232 137.819 4.772 138.847 4.772C139.883 4.772 140.567 5.232 140.567 6.3V8.056C140.567 8.252 140.659 8.348 140.859 8.348H141.063V9H140.643C140.131 9 139.907 8.732 139.867 8.4H139.787C139.579 8.752 139.195 9.08 138.375 9.08C137.467 9.08 136.827 8.588 136.827 7.82C136.827 6.996 137.459 6.652 138.259 6.572L139.207 6.48C139.515 6.452 139.675 6.364 139.675 6.092C139.675 5.664 139.371 5.44 138.831 5.44C138.295 5.44 137.935 5.66 137.915 6.084ZM137.755 7.788C137.755 8.172 138.067 8.416 138.555 8.416C139.091 8.416 139.671 8.108 139.671 7.24V6.984H139.591C139.467 7.056 139.339 7.096 139.027 7.128L138.495 7.184C138.043 7.228 137.755 7.396 137.755 7.788Z" fill="#063F56"/>
</svg>
