<svg width="84" height="12" viewBox="0 0 84 12" fill="none" xmlns="http://www.w3.org/2000/svg">
<path d="M5 0.57735C5.6188 0.220085 6.3812 0.220085 7 0.57735L10.1962 2.42265C10.815 2.77992 11.1962 3.44017 11.1962 4.1547V7.8453C11.1962 8.55983 10.815 9.22009 10.1962 9.57735L7 11.4226C6.3812 11.7799 5.6188 11.7799 5 11.4226L1.80385 9.57735C1.18505 9.22008 0.803848 8.55983 0.803848 7.8453V4.1547C0.803848 3.44017 1.18505 2.77992 1.80385 2.42265L5 0.57735Z" fill="#F7AD19"/>
<path opacity="0.4" d="M6.60457 4.3725C6.48556 4.35052 6.37626 4.42646 6.3536 4.54263C6.33094 4.6588 6.40713 4.77223 6.5229 4.79496C6.87147 4.86291 7.14061 5.13273 7.20883 5.48249V5.48274C7.22825 5.58342 7.31688 5.65662 7.41896 5.65662C7.43266 5.65662 7.44635 5.65537 7.46029 5.65287C7.57607 5.62964 7.65225 5.51647 7.6296 5.40005C7.52777 4.87765 7.12567 4.47418 6.60457 4.3725" fill="#063F56"/>
<path opacity="0.4" d="M6.58896 3.50198C6.53319 3.49399 6.47717 3.51048 6.43261 3.54595C6.38679 3.58193 6.35816 3.63389 6.35194 3.6921C6.33874 3.80977 6.42364 3.9162 6.54116 3.92944C7.35157 4.01988 7.98148 4.65119 8.07261 5.46414C8.08481 5.57306 8.17618 5.65525 8.28523 5.65525C8.29345 5.65525 8.30142 5.65475 8.30963 5.65375C8.36665 5.64751 8.41744 5.61928 8.45329 5.57431C8.48889 5.52934 8.50508 5.47338 8.4986 5.41617C8.38507 4.40186 7.60005 3.61466 6.58896 3.50198" fill="#063F56"/>
<path fill-rule="evenodd" clip-rule="evenodd" d="M5.75794 6.2431C6.75521 7.24009 6.98144 6.08668 7.61641 6.7212C8.22857 7.33319 8.58041 7.4558 7.80481 8.23118C7.70766 8.30926 7.0904 9.24856 4.92115 7.07992C2.75163 4.911 3.6904 4.29311 3.76849 4.19599C4.54597 3.41846 4.66647 3.77235 5.27862 4.38433C5.91359 5.01912 4.76066 5.2461 5.75794 6.2431Z" fill="#063F56"/>
<path d="M18.568 5.896H20.16V6.464H18.568V8.112H17.992V6.464H16.4V5.896H17.992V4.24H18.568V5.896ZM20.8661 5.124C20.8661 3.992 21.6581 3.144 22.9741 3.144C24.3341 3.144 25.2581 3.98 25.2581 5.972C25.2581 8.172 24.3261 9.096 22.9501 9.096C21.6261 9.096 21.1101 8.272 21.0261 7.588V7.468H21.8941C21.9461 7.94 22.2341 8.376 22.9421 8.376C23.7141 8.376 24.3061 7.852 24.3141 6.276H24.2381C24.0501 6.628 23.6261 7.02 22.7981 7.02C21.6741 7.02 20.8661 6.256 20.8661 5.124ZM21.7941 5.08C21.7941 5.816 22.2741 6.3 22.9861 6.3C23.6981 6.3 24.1861 5.816 24.1861 5.08C24.1861 4.348 23.6981 3.864 22.9861 3.864C22.2741 3.864 21.7941 4.348 21.7941 5.08ZM25.4918 3.976V3.24H29.7398V3.884C28.3038 5.66 27.7718 7.104 27.5998 9H26.6438V8.88C26.8278 6.992 27.4638 5.448 28.6758 3.976H25.4918ZM31.5095 5.032H30.1335V4.38H30.5895C31.3175 4.38 31.5695 4.116 31.5695 3.496V3.24H32.4735V9H31.5095V5.032ZM35.6784 6.596L35.9704 3.24H39.5104V3.976H36.8104L36.6624 5.584H36.7384C36.9184 5.396 37.2744 5.128 37.9304 5.128C39.0064 5.128 39.8064 5.844 39.8064 7.044C39.8064 8.264 39.0344 9.096 37.6704 9.096C36.3064 9.096 35.5824 8.264 35.5304 7.42V7.3H36.4424C36.4584 7.856 36.8624 8.376 37.6464 8.376C38.4264 8.376 38.8784 7.848 38.8784 7.088C38.8784 6.364 38.4224 5.848 37.6904 5.848C37.0904 5.848 36.7224 6.18 36.5544 6.596H35.6784ZM41.272 5.04H40.388V4.92C40.416 3.788 41.256 3.148 42.484 3.148C43.712 3.148 44.476 3.772 44.476 4.816C44.476 5.804 43.86 6.292 42.952 6.848L42.024 7.42C41.656 7.648 41.408 7.844 41.332 8.252H44.448V9H40.316L40.312 8.788C40.3 7.94 40.708 7.324 41.508 6.808L42.572 6.12C43.18 5.724 43.548 5.396 43.548 4.812C43.548 4.232 43.152 3.868 42.464 3.868C41.78 3.868 41.288 4.232 41.272 5.04ZM47.2724 5.124C47.2724 3.992 48.0644 3.144 49.3804 3.144C50.7404 3.144 51.6644 3.98 51.6644 5.972C51.6644 8.172 50.7324 9.096 49.3564 9.096C48.0324 9.096 47.5164 8.272 47.4324 7.588V7.468H48.3004C48.3524 7.94 48.6404 8.376 49.3484 8.376C50.1204 8.376 50.7124 7.852 50.7204 6.276H50.6444C50.4564 6.628 50.0324 7.02 49.2044 7.02C48.0804 7.02 47.2724 6.256 47.2724 5.124ZM48.2004 5.08C48.2004 5.816 48.6804 6.3 49.3924 6.3C50.1044 6.3 50.5924 5.816 50.5924 5.08C50.5924 4.348 50.1044 3.864 49.3924 3.864C48.6804 3.864 48.2004 4.348 48.2004 5.08ZM52.3036 5.124C52.3036 3.992 53.0956 3.144 54.4116 3.144C55.7716 3.144 56.6956 3.98 56.6956 5.972C56.6956 8.172 55.7636 9.096 54.3876 9.096C53.0636 9.096 52.5476 8.272 52.4636 7.588V7.468H53.3316C53.3836 7.94 53.6716 8.376 54.3796 8.376C55.1516 8.376 55.7436 7.852 55.7516 6.276H55.6756C55.4876 6.628 55.0636 7.02 54.2356 7.02C53.1116 7.02 52.3036 6.256 52.3036 5.124ZM53.2316 5.08C53.2316 5.816 53.7116 6.3 54.4236 6.3C55.1356 6.3 55.6236 5.816 55.6236 5.08C55.6236 4.348 55.1356 3.864 54.4236 3.864C53.7116 3.864 53.2316 4.348 53.2316 5.08ZM57.3989 6.12C57.3989 4.188 58.2469 3.144 59.7749 3.144C61.2989 3.144 62.1469 4.188 62.1469 6.12C62.1469 8.052 61.2989 9.096 59.7749 9.096C58.2469 9.096 57.3989 8.052 57.3989 6.12ZM58.3669 6.12C58.3669 7.608 58.8669 8.352 59.7749 8.352C60.6789 8.352 61.1789 7.608 61.1789 6.12C61.1789 4.632 60.6789 3.888 59.7749 3.888C58.8669 3.888 58.3669 4.632 58.3669 6.12ZM64.9599 5.124C64.9599 3.992 65.7519 3.144 67.0679 3.144C68.4279 3.144 69.3519 3.98 69.3519 5.972C69.3519 8.172 68.4199 9.096 67.0439 9.096C65.7199 9.096 65.2039 8.272 65.1199 7.588V7.468H65.9879C66.0399 7.94 66.3279 8.376 67.0359 8.376C67.8079 8.376 68.3999 7.852 68.4079 6.276H68.3319C68.1439 6.628 67.7199 7.02 66.8919 7.02C65.7679 7.02 64.9599 6.256 64.9599 5.124ZM65.8879 5.08C65.8879 5.816 66.3679 6.3 67.0799 6.3C67.7919 6.3 68.2799 5.816 68.2799 5.08C68.2799 4.348 67.7919 3.864 67.0799 3.864C66.3679 3.864 65.8879 4.348 65.8879 5.08ZM71.2751 5.032H69.8991V4.38H70.3551C71.0831 4.38 71.3351 4.116 71.3351 3.496V3.24H72.2391V9H71.2751V5.032ZM74.1001 5.04H73.2161V4.92C73.2441 3.788 74.0841 3.148 75.3121 3.148C76.5401 3.148 77.3041 3.772 77.3041 4.816C77.3041 5.804 76.6881 6.292 75.7801 6.848L74.8521 7.42C74.4841 7.648 74.2361 7.844 74.1601 8.252H77.2761V9H73.1441L73.1401 8.788C73.1281 7.94 73.5361 7.324 74.3361 6.808L75.4001 6.12C76.0081 5.724 76.3761 5.396 76.3761 4.812C76.3761 4.232 75.9801 3.868 75.2921 3.868C74.6081 3.868 74.1161 4.232 74.1001 5.04ZM77.9926 6.12C77.9926 4.188 78.8406 3.144 80.3686 3.144C81.8926 3.144 82.7406 4.188 82.7406 6.12C82.7406 8.052 81.8926 9.096 80.3686 9.096C78.8406 9.096 77.9926 8.052 77.9926 6.12ZM78.9606 6.12C78.9606 7.608 79.4606 8.352 80.3686 8.352C81.2726 8.352 81.7726 7.608 81.7726 6.12C81.7726 4.632 81.2726 3.888 80.3686 3.888C79.4606 3.888 78.9606 4.632 78.9606 6.12Z" fill="#063F56"/>
</svg>
