<svg width="139" height="22" viewBox="0 0 139 22" fill="none" xmlns="http://www.w3.org/2000/svg">
<path d="M1.204 6.37C1.204 3.192 3.892 0.503999 9.072 0.503999C14.252 0.503999 17.094 3.08 17.346 6.496V6.916H13.3C13.23 4.48 11.438 3.528 9.17 3.528C6.874 3.528 5.432 4.55 5.432 6.146C5.432 7.756 6.734 8.4 8.89 8.848L11.746 9.408C15.54 10.178 17.85 11.76 17.85 15.204C17.85 18.662 15.162 21.336 9.702 21.336C4.256 21.336 1.078 18.662 0.882 15.176V14.756H4.97C5.25 17.206 7.126 18.312 9.66 18.312C12.222 18.312 13.636 17.206 13.636 15.498C13.636 13.804 12.32 13.202 9.982 12.726L7.126 12.152C3.444 11.41 1.204 9.478 1.204 6.37ZM20.4098 21V6.342H24.3158V7.994H24.5958C25.1978 7.098 26.3878 6.062 28.7958 6.062C31.1898 6.062 32.3938 7.196 32.8418 8.204H33.1218C33.8078 7.238 35.1378 6.062 37.7138 6.062C40.5558 6.062 42.7818 7.672 42.7818 11.004V21H38.7078V11.326C38.7078 9.926 37.8678 9.1 36.4538 9.1C34.8298 9.1 33.6398 10.038 33.6398 12.278V21H29.5518V11.326C29.5518 9.926 28.7258 9.1 27.3258 9.1C25.6878 9.1 24.4838 10.038 24.4838 12.278V21H20.4098ZM45.9349 4.312V0.839999H50.0789V4.312H45.9349ZM45.9489 21V6.342H50.0789V21H45.9489ZM53.3864 21V6.342H57.3344V8.568H57.6144C58.2024 6.972 59.4764 5.866 62.4444 6.188V9.632C59.5604 9.226 57.5024 9.996 57.5024 13.538V21H53.3864ZM68.0765 10.752H64.3525V10.332C64.6745 7.686 67.1385 6.006 70.9185 6.006C74.7125 6.006 77.2605 7.686 77.2605 11.592V17.388C77.2605 18.816 77.3445 19.796 77.6805 20.58V21H73.8025C73.6625 20.552 73.5925 20.062 73.5925 19.404H73.3125C72.5985 20.356 71.4505 21.252 68.9725 21.252C65.8505 21.252 63.5125 19.544 63.5125 16.758C63.5125 13.832 65.7665 12.586 68.5945 12.292L71.9265 11.97C72.9065 11.872 73.3965 11.564 73.3965 10.738C73.3965 9.506 72.4725 8.834 70.8345 8.834C69.2385 8.834 68.1325 9.492 68.0765 10.752ZM67.5445 16.562C67.5445 17.738 68.4545 18.466 69.9805 18.466C71.5205 18.466 73.3685 17.598 73.3685 14.924V14.056H73.0885C72.6405 14.294 72.1365 14.42 71.2405 14.518L69.6585 14.686C68.4405 14.812 67.5445 15.33 67.5445 16.562Z" fill="#063F56"/>
<path d="M103.966 15.596L104.204 17.752C104.344 19.096 104.54 19.81 105.086 20.58V21H100.662C100.256 20.23 100.06 19.516 99.9335 18.004L99.8075 16.352C99.6255 14.126 98.6595 13.16 95.7895 13.16H92.4295V21H88.1175V0.839999H97.4975C101.516 0.839999 104.638 2.562 104.638 6.454C104.638 9.268 102.972 10.794 100.83 11.312V11.592C102.958 12.166 103.728 13.384 103.966 15.596ZM97.0215 3.99H92.4295V9.996H97.0215C99.0935 9.996 100.452 9.002 100.452 7C100.452 4.998 99.0935 3.99 97.0215 3.99ZM111.006 10.752H107.282V10.332C107.604 7.686 110.068 6.006 113.848 6.006C117.642 6.006 120.19 7.686 120.19 11.592V17.388C120.19 18.816 120.274 19.796 120.61 20.58V21H116.732C116.592 20.552 116.522 20.062 116.522 19.404H116.242C115.528 20.356 114.38 21.252 111.902 21.252C108.78 21.252 106.442 19.544 106.442 16.758C106.442 13.832 108.696 12.586 111.524 12.292L114.856 11.97C115.836 11.872 116.326 11.564 116.326 10.738C116.326 9.506 115.402 8.834 113.764 8.834C112.168 8.834 111.062 9.492 111.006 10.752ZM110.474 16.562C110.474 17.738 111.384 18.466 112.91 18.466C114.45 18.466 116.298 17.598 116.298 14.924V14.056H116.018C115.57 14.294 115.066 14.42 114.17 14.518L112.588 14.686C111.37 14.812 110.474 15.33 110.474 16.562ZM122.631 13.678C122.631 8.61 125.963 6.006 130.499 6.006C135.035 6.006 138.381 8.61 138.381 13.678C138.381 18.732 135.035 21.336 130.499 21.336C125.963 21.336 122.631 18.732 122.631 13.678ZM126.803 13.678C126.803 16.73 128.259 18.34 130.499 18.34C132.753 18.34 134.209 16.73 134.209 13.678C134.209 10.626 132.753 9.016 130.499 9.016C128.259 9.016 126.803 10.626 126.803 13.678Z" fill="#F7AD19"/>
</svg>
