<svg width="78" height="12" viewBox="0 0 78 12" fill="none" xmlns="http://www.w3.org/2000/svg">
<path d="M5 0.57735C5.6188 0.220085 6.3812 0.220085 7 0.57735L10.1962 2.42265C10.815 2.77992 11.1962 3.44017 11.1962 4.1547V7.8453C11.1962 8.55983 10.815 9.22009 10.1962 9.57735L7 11.4226C6.3812 11.7799 5.6188 11.7799 5 11.4226L1.80385 9.57735C1.18505 9.22008 0.803848 8.55983 0.803848 7.8453V4.1547C0.803848 3.44017 1.18505 2.77992 1.80385 2.42265L5 0.57735Z" fill="#F7AD19"/>
<g clip-path="url(#clip0_2002_583)">
<path d="M4.91251 8.22752C4.90501 8.22752 4.89501 8.23252 4.88751 8.23252C4.40251 7.99252 4.00751 7.59502 3.76501 7.11002C3.76501 7.10252 3.77001 7.09252 3.77001 7.08502C4.07501 7.17502 4.39001 7.24252 4.70251 7.29502C4.75751 7.61002 4.82251 7.92252 4.91251 8.22752Z" fill="#063F56"/>
<path d="M8.23501 7.11252C7.98751 7.61002 7.57501 8.01252 7.07251 8.25502C7.16751 7.93752 7.24751 7.61752 7.30001 7.29502C7.61501 7.24252 7.92501 7.17502 8.23001 7.08502C8.22751 7.09502 8.23501 7.10502 8.23501 7.11252Z" fill="#063F56"/>
<path d="M8.25501 4.9275C7.94001 4.8325 7.62251 4.755 7.30001 4.7C7.24751 4.3775 7.17001 4.0575 7.07251 3.745C7.59001 3.9925 8.00751 4.41 8.25501 4.9275Z" fill="#063F56"/>
<path d="M4.9125 3.77251C4.8225 4.07751 4.7575 4.38751 4.705 4.70251C4.3825 4.75251 4.0625 4.83251 3.745 4.92751C3.9875 4.42501 4.39 4.01251 4.8875 3.76501C4.895 3.76501 4.905 3.77251 4.9125 3.77251Z" fill="#063F56"/>
<path d="M6.87244 4.6475C6.29244 4.5825 5.70744 4.5825 5.12744 4.6475C5.18994 4.305 5.26994 3.9625 5.38244 3.6325C5.38744 3.6125 5.38494 3.5975 5.38744 3.5775C5.58494 3.53 5.78744 3.5 5.99994 3.5C6.20994 3.5 6.41494 3.53 6.60994 3.5775C6.61244 3.5975 6.61244 3.6125 6.61744 3.6325C6.72994 3.965 6.80994 4.305 6.87244 4.6475Z" fill="#063F56"/>
<path d="M4.6475 6.8725C4.3025 6.81 3.9625 6.73 3.6325 6.6175C3.6125 6.6125 3.5975 6.615 3.5775 6.6125C3.53 6.415 3.5 6.2125 3.5 6C3.5 5.79 3.53 5.585 3.5775 5.39C3.5975 5.3875 3.6125 5.3875 3.6325 5.3825C3.965 5.2725 4.3025 5.19 4.6475 5.1275C4.585 5.7075 4.585 6.2925 4.6475 6.8725Z" fill="#063F56"/>
<path d="M8.50004 6C8.50004 6.2125 8.47004 6.415 8.42254 6.6125C8.40254 6.615 8.38754 6.6125 8.36754 6.6175C8.03504 6.7275 7.69504 6.81 7.35254 6.8725C7.41754 6.2925 7.41754 5.7075 7.35254 5.1275C7.69504 5.19 8.03754 5.27 8.36754 5.3825C8.38754 5.3875 8.40254 5.39 8.42254 5.39C8.47004 5.5875 8.50004 5.79 8.50004 6Z" fill="#063F56"/>
<path d="M6.87244 7.35248C6.80994 7.69748 6.72994 8.03748 6.61744 8.36748C6.61244 8.38748 6.61244 8.40248 6.60994 8.42248C6.41494 8.46998 6.20994 8.49998 5.99994 8.49998C5.78744 8.49998 5.58494 8.46998 5.38744 8.42248C5.38494 8.40248 5.38744 8.38748 5.38244 8.36748C5.27244 8.03498 5.18994 7.69748 5.12744 7.35248C5.41744 7.38498 5.70744 7.40748 5.99994 7.40748C6.29244 7.40748 6.58494 7.38498 6.87244 7.35248Z" fill="#063F56"/>
<path d="M6.94083 6.94083C6.31556 7.01972 5.68444 7.01972 5.05917 6.94083C4.98028 6.31556 4.98028 5.68444 5.05917 5.05917C5.68444 4.98028 6.31556 4.98028 6.94083 5.05917C7.01972 5.68444 7.01972 6.31556 6.94083 6.94083Z" fill="#063F56"/>
</g>
<path d="M16.132 4.988V4.868H16.988L17.688 7.884H17.768L18.636 4.868H19.5L20.368 7.884H20.448L21.148 4.868H21.996V4.988L20.996 9H19.964L19.104 6.02H19.024L18.164 9H17.132L16.132 4.988ZM22.257 4.988V4.868H23.113L23.813 7.884H23.893L24.761 4.868H25.625L26.493 7.884H26.573L27.273 4.868H28.121V4.988L27.121 9H26.089L25.229 6.02H25.149L24.289 9H23.257L22.257 4.988ZM28.382 4.988V4.868H29.238L29.938 7.884H30.018L30.886 4.868H31.75L32.618 7.884H32.698L33.398 4.868H34.246V4.988L33.246 9H32.214L31.354 6.02H31.274L30.414 9H29.382L28.382 4.988ZM34.5997 9V8.012H35.6517V9H34.5997ZM35.9293 5.52V4.868H36.7173V3.748H37.6533V4.868H38.5573V5.52H37.6533V7.972C37.6533 8.192 37.7613 8.312 37.9933 8.312H38.5333V9H37.7733C37.1093 9 36.7173 8.656 36.7173 8V5.52H35.9293ZM40.1807 6.084H39.3167V5.964C39.4047 5.232 40.0847 4.772 41.1127 4.772C42.1487 4.772 42.8327 5.232 42.8327 6.3V8.056C42.8327 8.252 42.9247 8.348 43.1247 8.348H43.3287V9H42.9087C42.3967 9 42.1727 8.732 42.1327 8.4H42.0527C41.8447 8.752 41.4607 9.08 40.6407 9.08C39.7327 9.08 39.0927 8.588 39.0927 7.82C39.0927 6.996 39.7247 6.652 40.5247 6.572L41.4727 6.48C41.7807 6.452 41.9407 6.364 41.9407 6.092C41.9407 5.664 41.6367 5.44 41.0967 5.44C40.5607 5.44 40.2007 5.66 40.1807 6.084ZM40.0207 7.788C40.0207 8.172 40.3327 8.416 40.8207 8.416C41.3567 8.416 41.9367 8.108 41.9367 7.24V6.984H41.8567C41.7327 7.056 41.6047 7.096 41.2927 7.128L40.7607 7.184C40.3087 7.228 40.0207 7.396 40.0207 7.788ZM44.0046 9V3.24H44.9526V5.344H45.0326C45.2046 5.084 45.5766 4.78 46.3126 4.78C47.3646 4.78 48.2006 5.484 48.2006 6.932C48.2006 8.38 47.3646 9.088 46.3126 9.088C45.5766 9.088 45.1806 8.788 44.9966 8.476H44.9166V9H44.0046ZM44.9126 6.932C44.9126 7.868 45.3806 8.372 46.0806 8.372C46.7806 8.372 47.2446 7.868 47.2446 6.932C47.2446 6 46.7806 5.496 46.0806 5.496C45.3806 5.496 44.9126 6 44.9126 6.932ZM49.8838 6.084H49.0198V5.964C49.1078 5.232 49.7878 4.772 50.8158 4.772C51.8518 4.772 52.5358 5.232 52.5358 6.3V8.056C52.5358 8.252 52.6278 8.348 52.8278 8.348H53.0318V9H52.6118C52.0998 9 51.8758 8.732 51.8358 8.4H51.7558C51.5478 8.752 51.1638 9.08 50.3438 9.08C49.4358 9.08 48.7958 8.588 48.7958 7.82C48.7958 6.996 49.4278 6.652 50.2278 6.572L51.1758 6.48C51.4838 6.452 51.6438 6.364 51.6438 6.092C51.6438 5.664 51.3398 5.44 50.7998 5.44C50.2638 5.44 49.9038 5.66 49.8838 6.084ZM49.7238 7.788C49.7238 8.172 50.0358 8.416 50.5238 8.416C51.0598 8.416 51.6398 8.108 51.6398 7.24V6.984H51.5598C51.4358 7.056 51.3078 7.096 50.9958 7.128L50.4638 7.184C50.0118 7.228 49.7238 7.396 49.7238 7.788ZM53.5281 6C53.5281 5.248 54.1721 4.78 55.2441 4.78C56.3241 4.78 56.9681 5.264 57.0561 5.964V6.084H56.1921C56.1601 5.628 55.8041 5.432 55.2681 5.432C54.7441 5.432 54.4201 5.632 54.4201 5.964C54.4201 6.304 54.7081 6.424 55.0721 6.488L55.7961 6.604C56.6241 6.74 57.2001 7.028 57.2001 7.8C57.2001 8.588 56.5801 9.096 55.4041 9.096C54.2241 9.096 53.5441 8.584 53.4441 7.844V7.724H54.3241C54.3681 8.208 54.8121 8.444 55.4041 8.444C55.9961 8.444 56.3041 8.216 56.3041 7.864C56.3041 7.52 56.0081 7.404 55.5681 7.328L54.8481 7.212C54.0721 7.084 53.5281 6.728 53.5281 6ZM57.9811 9V3.24H58.9291V5.38H59.0091C59.1571 5.124 59.5011 4.78 60.2571 4.78C61.1851 4.78 61.7811 5.292 61.7811 6.256V9H60.8331V6.312C60.8331 5.756 60.5051 5.496 59.9971 5.496C59.4211 5.496 58.9291 5.84 58.9291 6.616V9H57.9811ZM62.7934 4.172V3.244H63.7534V4.172H62.7934ZM62.8014 9V4.868H63.7494V9H62.8014ZM64.8092 9V4.868H65.7213V5.476H65.8013C65.9733 5.072 66.3253 4.74 67.1653 4.828V5.628C66.3293 5.524 65.7573 5.78 65.7573 6.8V9H64.8092ZM67.3184 9V8.012H68.3704V9H67.3184ZM69.1531 6C69.1531 5.248 69.7971 4.78 70.8691 4.78C71.9491 4.78 72.5931 5.264 72.6811 5.964V6.084H71.8171C71.7851 5.628 71.4291 5.432 70.8931 5.432C70.3691 5.432 70.0451 5.632 70.0451 5.964C70.0451 6.304 70.3331 6.424 70.6971 6.488L71.4211 6.604C72.2491 6.74 72.8251 7.028 72.8251 7.8C72.8251 8.588 72.2051 9.096 71.0291 9.096C69.8491 9.096 69.1691 8.584 69.0691 7.844V7.724H69.9491C69.9931 8.208 70.4371 8.444 71.0291 8.444C71.6211 8.444 71.9291 8.216 71.9291 7.864C71.9291 7.52 71.6331 7.404 71.1931 7.328L70.4731 7.212C69.6971 7.084 69.1531 6.728 69.1531 6ZM74.4541 6.084H73.5901V5.964C73.6781 5.232 74.3581 4.772 75.3861 4.772C76.4221 4.772 77.1061 5.232 77.1061 6.3V8.056C77.1061 8.252 77.1981 8.348 77.3981 8.348H77.6021V9H77.1821C76.6701 9 76.4461 8.732 76.4061 8.4H76.3261C76.1181 8.752 75.7341 9.08 74.9141 9.08C74.0061 9.08 73.3661 8.588 73.3661 7.82C73.3661 6.996 73.9981 6.652 74.7981 6.572L75.7461 6.48C76.0541 6.452 76.2141 6.364 76.2141 6.092C76.2141 5.664 75.9101 5.44 75.3701 5.44C74.8341 5.44 74.4741 5.66 74.4541 6.084ZM74.2941 7.788C74.2941 8.172 74.6061 8.416 75.0941 8.416C75.6301 8.416 76.2101 8.108 76.2101 7.24V6.984H76.1301C76.0061 7.056 75.8781 7.096 75.5661 7.128L75.0341 7.184C74.5821 7.228 74.2941 7.396 74.2941 7.788Z" fill="#063F56"/>
<defs>
<clipPath id="clip0_2002_583">
<rect width="6" height="6" fill="white" transform="translate(3 3)"/>
</clipPath>
</defs>
</svg>
