<svg width="12" height="12" viewBox="0 0 12 12" fill="none" xmlns="http://www.w3.org/2000/svg">
<rect width="12" height="12" rx="6" fill="#063F56"/>
<path d="M7.33321 2.99988C7.77524 2.99988 8.19916 3.17547 8.51172 3.48803C8.82428 3.80059 8.99988 4.22452 8.99988 4.66654V7.33321C8.99988 7.77524 8.82428 8.19916 8.51172 8.51172C8.19916 8.82428 7.77524 8.99988 7.33321 8.99988H4.66654C4.22452 8.99988 3.80059 8.82428 3.48803 8.51172C3.17547 8.19916 2.99988 7.77524 2.99988 7.33321V4.66654C2.99988 4.22452 3.17547 3.80059 3.48803 3.48803C3.80059 3.17547 4.22452 2.99988 4.66654 2.99988H7.33321ZM5.99988 4.66654C5.64626 4.66654 5.30712 4.80702 5.05707 5.05707C4.80702 5.30712 4.66654 5.64626 4.66654 5.99988C4.66654 6.3535 4.80702 6.69264 5.05707 6.94269C5.30712 7.19274 5.64626 7.33321 5.99988 7.33321C6.3535 7.33321 6.69264 7.19274 6.94269 6.94269C7.19274 6.69264 7.33321 6.3535 7.33321 5.99988C7.33321 5.64626 7.19274 5.30712 6.94269 5.05707C6.69264 4.80702 6.3535 4.66654 5.99988 4.66654ZM5.99988 5.33321C6.17669 5.33321 6.34626 5.40345 6.47128 5.52847C6.59631 5.6535 6.66654 5.82307 6.66654 5.99988C6.66654 6.17669 6.59631 6.34626 6.47128 6.47128C6.34626 6.59631 6.17669 6.66654 5.99988 6.66654C5.82307 6.66654 5.6535 6.59631 5.52847 6.47128C5.40345 6.34626 5.33321 6.17669 5.33321 5.99988C5.33321 5.82307 5.40345 5.6535 5.52847 5.52847C5.6535 5.40345 5.82307 5.33321 5.99988 5.33321ZM7.49988 4.16654C7.41147 4.16654 7.32669 4.20166 7.26418 4.26418C7.20166 4.32669 7.16654 4.41147 7.16654 4.49988C7.16654 4.58828 7.20166 4.67307 7.26418 4.73558C7.32669 4.79809 7.41147 4.83321 7.49988 4.83321C7.58828 4.83321 7.67307 4.79809 7.73558 4.73558C7.79809 4.67307 7.83321 4.58828 7.83321 4.49988C7.83321 4.41147 7.79809 4.32669 7.73558 4.26418C7.67307 4.20166 7.58828 4.16654 7.49988 4.16654Z" fill="#F5F5F5"/>
</svg>
