<svg width="12" height="12" viewBox="0 0 12 12" fill="none" xmlns="http://www.w3.org/2000/svg">
<rect width="12" height="12" rx="6" fill="#063F56"/>
<path d="M6.73329 2.95831C6.32442 2.95831 5.93229 3.12074 5.64317 3.40986C5.35405 3.69898 5.19163 4.0911 5.19163 4.49998V5.35831H4.36663C4.32529 5.35831 4.29163 5.39165 4.29163 5.43331V6.56665C4.29163 6.60798 4.32496 6.64165 4.36663 6.64165H5.19163V8.96665C5.19163 9.00798 5.22496 9.04165 5.26663 9.04165H6.39996C6.44129 9.04165 6.47496 9.00831 6.47496 8.96665V6.64165H7.30729C7.34163 6.64165 7.37163 6.61831 7.37996 6.58498L7.66329 5.45165C7.66608 5.44059 7.66631 5.42904 7.66396 5.41788C7.66161 5.40672 7.65675 5.39624 7.64975 5.38724C7.64274 5.37824 7.63377 5.37096 7.62353 5.36594C7.61328 5.36093 7.60203 5.35832 7.59063 5.35831H6.47496V4.49998C6.47496 4.46605 6.48164 4.43246 6.49462 4.40112C6.50761 4.36978 6.52663 4.3413 6.55062 4.31731C6.57461 4.29332 6.60309 4.27429 6.63443 4.26131C6.66578 4.24833 6.69937 4.24165 6.73329 4.24165H7.59996C7.64129 4.24165 7.67496 4.20831 7.67496 4.16665V3.03331C7.67496 2.99198 7.64163 2.95831 7.59996 2.95831H6.73329Z" fill="#F5F5F5"/>
</svg>
